# xmcd
#
# Track frame offsets: 
#        150
#        14285
#        30825
#        46813
#        63075
#        79613
#        93675
#        105863
#        125438
#        142088
#
# Disc length: 2128 seconds
#
# Revision: 0
# Processed by: cddbd v1.4PL0 Copyright (c) Steve Scherf et al.
# Submitted via: ExactAudioCopy v0.90b4
#
DISCID=70084e0a
DTITLE=Exile - Something Good
DYEAR=1991
DGENRE=Crossover
TTITLE0=Woke Up In Love
TTITLE1=High Cost Of Leaving
TTITLE2=Music
TTITLE3=She's A Miracle
TTITLE4=I Don't Want To Be A Memory
TTITLE5=Comin' Apart At The Seams
TTITLE6=I Could Get Used To You
TTITLE7=This Could Be The Start Of Something Good
TTITLE8=Somethin' You Got
TTITLE9=I Got Love (Super Duper Love)
EXTD=
EXTT0=
EXTT1=
EXTT2=
EXTT3=
EXTT4=
EXTT5=
EXTT6=
EXTT7=
EXTT8=
EXTT9=
PLAYORDER=
